<mxfile host="65bd71144e" scale="3" border="0">
    <diagram id="LzTGRrPrDBO6Tm46XuKC" name="Page-1">
        <mxGraphModel dx="1363" dy="1159" grid="0" gridSize="10" guides="1" tooltips="1" connect="1" arrows="1" fold="1" page="0" pageScale="1" pageWidth="1600" pageHeight="1200" math="0" shadow="0">
            <root>
                <mxCell id="0"/>
                <mxCell id="1" parent="0"/>
                <mxCell id="76" style="edgeStyle=none;html=1;exitX=0.5;exitY=1;exitDx=0;exitDy=0;entryX=0.5;entryY=0;entryDx=0;entryDy=0;" edge="1" parent="1" source="47" target="75">
                    <mxGeometry relative="1" as="geometry"/>
                </mxCell>
                <mxCell id="47" value="DMSC Init" style="rounded=0;whiteSpace=wrap;html=1;fillColor=#ffe6cc;strokeColor=#d79b00;" vertex="1" parent="1">
                    <mxGeometry x="207" y="57" width="120" height="60" as="geometry"/>
                </mxCell>
                <mxCell id="53" style="edgeStyle=none;html=1;exitX=1;exitY=0.5;exitDx=0;exitDy=0;" edge="1" parent="1" source="48" target="49">
                    <mxGeometry relative="1" as="geometry"/>
                </mxCell>
                <mxCell id="56" value="Primary No" style="edgeLabel;html=1;align=center;verticalAlign=middle;resizable=0;points=[];" vertex="1" connectable="0" parent="53">
                    <mxGeometry x="-0.3867" y="-3" relative="1" as="geometry">
                        <mxPoint x="9" y="-11" as="offset"/>
                    </mxGeometry>
                </mxCell>
                <mxCell id="79" style="edgeStyle=none;html=1;entryX=1;entryY=0.5;entryDx=0;entryDy=0;" edge="1" parent="1" source="48" target="78">
                    <mxGeometry relative="1" as="geometry"/>
                </mxCell>
                <mxCell id="80" value="Backup No" style="edgeLabel;html=1;align=center;verticalAlign=middle;resizable=0;points=[];" vertex="1" connectable="0" parent="79">
                    <mxGeometry x="0.2288" relative="1" as="geometry">
                        <mxPoint x="9" y="-9" as="offset"/>
                    </mxGeometry>
                </mxCell>
                <mxCell id="150" style="edgeStyle=none;html=1;exitX=0.5;exitY=1;exitDx=0;exitDy=0;" edge="1" parent="1" source="48" target="149">
                    <mxGeometry relative="1" as="geometry"/>
                </mxCell>
                <mxCell id="155" value="Yes" style="edgeLabel;html=1;align=center;verticalAlign=middle;resizable=0;points=[];" vertex="1" connectable="0" parent="150">
                    <mxGeometry x="-0.1548" relative="1" as="geometry">
                        <mxPoint x="20" y="-11" as="offset"/>
                    </mxGeometry>
                </mxCell>
                <mxCell id="48" value="Image&lt;br&gt;Integrity OK?" style="rhombus;whiteSpace=wrap;html=1;" vertex="1" parent="1">
                    <mxGeometry x="185" y="258" width="164" height="102" as="geometry"/>
                </mxCell>
                <mxCell id="86" style="edgeStyle=none;html=1;exitX=1;exitY=0.5;exitDx=0;exitDy=0;entryX=0;entryY=0.5;entryDx=0;entryDy=0;" edge="1" parent="1" source="49" target="85">
                    <mxGeometry relative="1" as="geometry"/>
                </mxCell>
                <mxCell id="49" value="Start Secondary Bootmode&lt;div&gt;boot from Ethernet&lt;/div&gt;" style="rounded=0;whiteSpace=wrap;html=1;fillColor=#fff2cc;strokeColor=#d6b656;" vertex="1" parent="1">
                    <mxGeometry x="424" y="279" width="120" height="60" as="geometry"/>
                </mxCell>
                <mxCell id="124" style="edgeStyle=none;html=1;exitX=0.5;exitY=1;exitDx=0;exitDy=0;entryX=0.5;entryY=0;entryDx=0;entryDy=0;" edge="1" parent="1" source="60" target="121">
                    <mxGeometry relative="1" as="geometry"/>
                </mxCell>
                <mxCell id="60" value="Save firmware in the flash memory" style="rounded=0;whiteSpace=wrap;html=1;fillColor=#fff2cc;strokeColor=#d6b656;" vertex="1" parent="1">
                    <mxGeometry x="627" y="743" width="120" height="60" as="geometry"/>
                </mxCell>
                <mxCell id="111" style="edgeStyle=none;html=1;exitX=0.5;exitY=1;exitDx=0;exitDy=0;entryX=0.5;entryY=0;entryDx=0;entryDy=0;" edge="1" parent="1" source="68" target="109">
                    <mxGeometry relative="1" as="geometry"/>
                </mxCell>
                <mxCell id="68" value="Reboots with Loaded Image" style="rounded=0;whiteSpace=wrap;html=1;fillColor=#fff2cc;strokeColor=#d6b656;" vertex="1" parent="1">
                    <mxGeometry x="207" y="635" width="120" height="60" as="geometry"/>
                </mxCell>
                <mxCell id="84" style="edgeStyle=none;html=1;exitX=0.5;exitY=1;exitDx=0;exitDy=0;" edge="1" parent="1" source="75" target="48">
                    <mxGeometry relative="1" as="geometry"/>
                </mxCell>
                <mxCell id="75" value="Start Primary Bootmode&lt;div&gt;boot from Flash&lt;/div&gt;" style="rounded=0;whiteSpace=wrap;html=1;fillColor=#fff2cc;strokeColor=#d6b656;" vertex="1" parent="1">
                    <mxGeometry x="207" y="158" width="120" height="60" as="geometry"/>
                </mxCell>
                <mxCell id="81" style="edgeStyle=orthogonalEdgeStyle;html=1;entryX=0.5;entryY=0;entryDx=0;entryDy=0;" edge="1" parent="1" source="78" target="75">
                    <mxGeometry relative="1" as="geometry">
                        <Array as="points">
                            <mxPoint x="-91" y="309"/>
                            <mxPoint x="-91" y="131"/>
                            <mxPoint x="267" y="131"/>
                        </Array>
                    </mxGeometry>
                </mxCell>
                <mxCell id="82" value="No" style="edgeLabel;html=1;align=center;verticalAlign=middle;resizable=0;points=[];" vertex="1" connectable="0" parent="81">
                    <mxGeometry x="-0.7429" y="1" relative="1" as="geometry">
                        <mxPoint x="12" y="21" as="offset"/>
                    </mxGeometry>
                </mxCell>
                <mxCell id="83" value="Retry" style="edgeLabel;html=1;align=center;verticalAlign=middle;resizable=0;points=[];" vertex="1" connectable="0" parent="81">
                    <mxGeometry x="0.2197" y="1" relative="1" as="geometry">
                        <mxPoint x="9" y="-10" as="offset"/>
                    </mxGeometry>
                </mxCell>
                <mxCell id="101" style="edgeStyle=none;html=1;exitX=0.5;exitY=1;exitDx=0;exitDy=0;" edge="1" parent="1" source="78" target="100">
                    <mxGeometry relative="1" as="geometry"/>
                </mxCell>
                <mxCell id="127" value="Yes" style="edgeLabel;html=1;align=center;verticalAlign=middle;resizable=0;points=[];" vertex="1" connectable="0" parent="101">
                    <mxGeometry x="-0.4852" y="-1" relative="1" as="geometry">
                        <mxPoint x="20" y="-2" as="offset"/>
                    </mxGeometry>
                </mxCell>
                <mxCell id="78" value="DMSC Watchdog Timer Timeout? (3 min)" style="rhombus;whiteSpace=wrap;html=1;" vertex="1" parent="1">
                    <mxGeometry x="-54" y="258" width="164" height="102" as="geometry"/>
                </mxCell>
                <mxCell id="102" style="edgeStyle=orthogonalEdgeStyle;html=1;exitX=0.5;exitY=0;exitDx=0;exitDy=0;entryX=0.5;entryY=0;entryDx=0;entryDy=0;" edge="1" parent="1" source="85" target="78">
                    <mxGeometry relative="1" as="geometry">
                        <Array as="points">
                            <mxPoint x="687" y="233"/>
                            <mxPoint x="28" y="233"/>
                        </Array>
                    </mxGeometry>
                </mxCell>
                <mxCell id="103" value="No" style="edgeLabel;html=1;align=center;verticalAlign=middle;resizable=0;points=[];" vertex="1" connectable="0" parent="102">
                    <mxGeometry x="-0.7887" y="-1" relative="1" as="geometry">
                        <mxPoint x="63" y="15" as="offset"/>
                    </mxGeometry>
                </mxCell>
                <mxCell id="153" style="edgeStyle=none;html=1;exitX=0.5;exitY=1;exitDx=0;exitDy=0;entryX=0.5;entryY=0;entryDx=0;entryDy=0;" edge="1" parent="1" source="85" target="152">
                    <mxGeometry relative="1" as="geometry"/>
                </mxCell>
                <mxCell id="156" value="Yes" style="edgeLabel;html=1;align=center;verticalAlign=middle;resizable=0;points=[];" vertex="1" connectable="0" parent="153">
                    <mxGeometry x="-0.2738" relative="1" as="geometry">
                        <mxPoint x="17" y="-6" as="offset"/>
                    </mxGeometry>
                </mxCell>
                <mxCell id="85" value="Image&lt;br&gt;Integrity OK?" style="rhombus;whiteSpace=wrap;html=1;" vertex="1" parent="1">
                    <mxGeometry x="605" y="258" width="164" height="102" as="geometry"/>
                </mxCell>
                <mxCell id="92" style="edgeStyle=none;html=1;exitX=0.5;exitY=1;exitDx=0;exitDy=0;entryX=0.5;entryY=0;entryDx=0;entryDy=0;" edge="1" parent="1" source="90" target="47">
                    <mxGeometry relative="1" as="geometry"/>
                </mxCell>
                <mxCell id="90" value="Power On" style="rounded=1;whiteSpace=wrap;html=1;fillColor=#f8cecc;strokeColor=#b85450;" vertex="1" parent="1">
                    <mxGeometry x="207" y="-50" width="120" height="60" as="geometry"/>
                </mxCell>
                <mxCell id="100" value="Public ROM Aborts.&lt;br&gt;Waiting for MCU Reset" style="rounded=1;whiteSpace=wrap;html=1;" vertex="1" parent="1">
                    <mxGeometry x="-43.5" y="407" width="143" height="60" as="geometry"/>
                </mxCell>
                <mxCell id="108" style="edgeStyle=none;html=1;exitX=0.5;exitY=1;exitDx=0;exitDy=0;" edge="1" parent="1" source="104" target="68">
                    <mxGeometry relative="1" as="geometry"/>
                </mxCell>
                <mxCell id="104" value="&lt;span style=&quot;color: rgb(0, 0, 0);&quot;&gt;DMSC Issues Clock Stop and Reset the MCU&lt;/span&gt;" style="rounded=0;whiteSpace=wrap;html=1;fillColor=#ffe6cc;strokeColor=#d79b00;" vertex="1" parent="1">
                    <mxGeometry x="207" y="525" width="120" height="60" as="geometry"/>
                </mxCell>
                <mxCell id="159" style="edgeStyle=none;html=1;exitX=0.5;exitY=1;exitDx=0;exitDy=0;" edge="1" parent="1" source="109" target="157">
                    <mxGeometry relative="1" as="geometry"/>
                </mxCell>
                <mxCell id="109" value="Load Images&lt;br&gt;in the all cores" style="rounded=0;whiteSpace=wrap;html=1;fillColor=#fff2cc;strokeColor=#d6b656;" vertex="1" parent="1">
                    <mxGeometry x="207" y="744" width="120" height="60" as="geometry"/>
                </mxCell>
                <mxCell id="115" style="edgeStyle=none;html=1;exitX=0.5;exitY=1;exitDx=0;exitDy=0;" edge="1" parent="1" source="110" target="114">
                    <mxGeometry relative="1" as="geometry"/>
                </mxCell>
                <mxCell id="110" value="Reboots all system with Loaded Images" style="rounded=0;whiteSpace=wrap;html=1;fillColor=#fff2cc;strokeColor=#d6b656;" vertex="1" parent="1">
                    <mxGeometry x="207" y="984" width="120" height="60" as="geometry"/>
                </mxCell>
                <mxCell id="114" value="Run all cores" style="rounded=1;whiteSpace=wrap;html=1;" vertex="1" parent="1">
                    <mxGeometry x="207" y="1093" width="120" height="60" as="geometry"/>
                </mxCell>
                <mxCell id="122" style="edgeStyle=none;html=1;exitX=0.5;exitY=1;exitDx=0;exitDy=0;entryX=0.5;entryY=0;entryDx=0;entryDy=0;" edge="1" parent="1" source="116" target="118">
                    <mxGeometry relative="1" as="geometry"/>
                </mxCell>
                <mxCell id="116" value="DMSC Issues Clock Stop and Reset the MCU" style="rounded=0;whiteSpace=wrap;html=1;fillColor=#ffe6cc;strokeColor=#d79b00;" vertex="1" parent="1">
                    <mxGeometry x="627" y="525" width="120" height="60" as="geometry"/>
                </mxCell>
                <mxCell id="123" style="edgeStyle=none;html=1;exitX=0.5;exitY=1;exitDx=0;exitDy=0;" edge="1" parent="1" source="118" target="60">
                    <mxGeometry relative="1" as="geometry"/>
                </mxCell>
                <mxCell id="118" value="Reboots with Loaded Image" style="rounded=0;whiteSpace=wrap;html=1;fillColor=#fff2cc;strokeColor=#d6b656;" vertex="1" parent="1">
                    <mxGeometry x="627" y="634" width="120" height="60" as="geometry"/>
                </mxCell>
                <mxCell id="125" style="edgeStyle=orthogonalEdgeStyle;html=1;exitX=0.5;exitY=1;exitDx=0;exitDy=0;entryX=0.5;entryY=0;entryDx=0;entryDy=0;" edge="1" parent="1" source="121" target="47">
                    <mxGeometry relative="1" as="geometry">
                        <Array as="points">
                            <mxPoint x="687" y="831"/>
                            <mxPoint x="799" y="831"/>
                            <mxPoint x="799" y="29"/>
                            <mxPoint x="267" y="29"/>
                        </Array>
                    </mxGeometry>
                </mxCell>
                <mxCell id="121" value="Reset all system" style="rounded=0;whiteSpace=wrap;html=1;fillColor=#fff2cc;strokeColor=#d6b656;" vertex="1" parent="1">
                    <mxGeometry x="627" y="852" width="120" height="60" as="geometry"/>
                </mxCell>
                <mxCell id="129" value="Hardware" style="rounded=0;whiteSpace=wrap;html=1;fillColor=#f8cecc;strokeColor=#b85450;flipV=1;" vertex="1" parent="1">
                    <mxGeometry x="-233" y="-45" width="120" height="22" as="geometry"/>
                </mxCell>
                <mxCell id="130" value="DMSC" style="rounded=0;whiteSpace=wrap;html=1;fillColor=#ffe6cc;strokeColor=#d79b00;flipV=1;" vertex="1" parent="1">
                    <mxGeometry x="-233" y="-6" width="120" height="22" as="geometry"/>
                </mxCell>
                <mxCell id="131" value="R5" style="rounded=0;whiteSpace=wrap;html=1;fillColor=#fff2cc;strokeColor=#d6b656;flipV=1;" vertex="1" parent="1">
                    <mxGeometry x="-233" y="33" width="120" height="22" as="geometry"/>
                </mxCell>
                <mxCell id="148" style="edgeStyle=orthogonalEdgeStyle;html=1;exitX=0;exitY=0.25;exitDx=0;exitDy=0;entryX=1;entryY=0.5;entryDx=0;entryDy=0;dashed=1;fillColor=#ffe6cc;strokeColor=#d79b00;" edge="1" parent="1" source="132" target="47">
                    <mxGeometry relative="1" as="geometry">
                        <Array as="points">
                            <mxPoint x="973" y="111"/>
                            <mxPoint x="973" y="87"/>
                        </Array>
                    </mxGeometry>
                </mxCell>
                <mxCell id="132" value="&amp;nbsp; DMSC Init" style="rounded=0;whiteSpace=wrap;html=1;fillColor=#ffe6cc;strokeColor=#d79b00;align=left;verticalAlign=top;" vertex="1" parent="1">
                    <mxGeometry x="949" y="-54" width="528" height="662" as="geometry"/>
                </mxCell>
                <mxCell id="141" style="edgeStyle=none;html=1;exitX=0.5;exitY=1;exitDx=0;exitDy=0;entryX=0.5;entryY=0;entryDx=0;entryDy=0;" edge="1" parent="1" source="134" target="136">
                    <mxGeometry relative="1" as="geometry"/>
                </mxCell>
                <mxCell id="134" value="DMSC ROM Configures PLLCTRL and Locks MCU PLL" style="rounded=0;whiteSpace=wrap;html=1;" vertex="1" parent="1">
                    <mxGeometry x="1160" y="82" width="200" height="60" as="geometry"/>
                </mxCell>
                <mxCell id="140" style="edgeStyle=none;html=1;exitX=0.5;exitY=1;exitDx=0;exitDy=0;" edge="1" parent="1" source="135" target="134">
                    <mxGeometry relative="1" as="geometry"/>
                </mxCell>
                <mxCell id="146" style="edgeStyle=none;html=1;exitX=0.5;exitY=0;exitDx=0;exitDy=0;startArrow=classic;startFill=1;endArrow=none;endFill=0;" edge="1" parent="1" source="135">
                    <mxGeometry relative="1" as="geometry">
                        <mxPoint x="1260.1999999999998" y="-91.32003173828116" as="targetPoint"/>
                    </mxGeometry>
                </mxCell>
                <mxCell id="135" value="&lt;span style=&quot;color: rgb(0, 0, 0);&quot;&gt;DMSC ROM Configures&lt;br&gt;RTI WDT to 180s&lt;/span&gt;" style="rounded=0;whiteSpace=wrap;html=1;" vertex="1" parent="1">
                    <mxGeometry x="1160" y="-20" width="200" height="60" as="geometry"/>
                </mxCell>
                <mxCell id="142" style="edgeStyle=none;html=1;exitX=0.5;exitY=1;exitDx=0;exitDy=0;" edge="1" parent="1" source="136" target="137">
                    <mxGeometry relative="1" as="geometry"/>
                </mxCell>
                <mxCell id="136" value="DMSC Configures Default Firewalls Based on Boot Mode" style="rounded=0;whiteSpace=wrap;html=1;" vertex="1" parent="1">
                    <mxGeometry x="1160" y="184" width="200" height="60" as="geometry"/>
                </mxCell>
                <mxCell id="143" style="edgeStyle=none;html=1;exitX=0.5;exitY=1;exitDx=0;exitDy=0;entryX=0.5;entryY=0;entryDx=0;entryDy=0;" edge="1" parent="1" source="137" target="138">
                    <mxGeometry relative="1" as="geometry"/>
                </mxCell>
                <mxCell id="137" value="DMSC Configures MCU Sec. Proxy/Ring Acc." style="rounded=0;whiteSpace=wrap;html=1;" vertex="1" parent="1">
                    <mxGeometry x="1160" y="286" width="200" height="60" as="geometry"/>
                </mxCell>
                <mxCell id="144" style="edgeStyle=none;html=1;exitX=0.5;exitY=1;exitDx=0;exitDy=0;entryX=0.5;entryY=0;entryDx=0;entryDy=0;" edge="1" parent="1" source="138" target="139">
                    <mxGeometry relative="1" as="geometry"/>
                </mxCell>
                <mxCell id="138" value="DMSC Sends Message to MCU&lt;br&gt;with Boot Mode Info" style="rounded=0;whiteSpace=wrap;html=1;" vertex="1" parent="1">
                    <mxGeometry x="1160" y="388" width="200" height="60" as="geometry"/>
                </mxCell>
                <mxCell id="145" style="edgeStyle=none;html=1;exitX=0.5;exitY=1;exitDx=0;exitDy=0;" edge="1" parent="1" source="139">
                    <mxGeometry relative="1" as="geometry">
                        <mxPoint x="1260.1999999999998" y="623.5599609374999" as="targetPoint"/>
                    </mxGeometry>
                </mxCell>
                <mxCell id="139" value="DMSC Releases Reset to R5 CPU0" style="rounded=0;whiteSpace=wrap;html=1;" vertex="1" parent="1">
                    <mxGeometry x="1160" y="490" width="200" height="60" as="geometry"/>
                </mxCell>
                <mxCell id="151" style="edgeStyle=none;html=1;exitX=0.5;exitY=1;exitDx=0;exitDy=0;" edge="1" parent="1" source="149" target="104">
                    <mxGeometry relative="1" as="geometry"/>
                </mxCell>
                <mxCell id="149" value="&lt;span style=&quot;color: rgb(0, 0, 0);&quot;&gt;R5 Configures MAIN Domain PLLs&lt;/span&gt;" style="rounded=0;whiteSpace=wrap;html=1;fillColor=#fff2cc;strokeColor=#d6b656;" vertex="1" parent="1">
                    <mxGeometry x="207" y="416" width="120" height="60" as="geometry"/>
                </mxCell>
                <mxCell id="154" style="edgeStyle=none;html=1;exitX=0.5;exitY=1;exitDx=0;exitDy=0;entryX=0.5;entryY=0;entryDx=0;entryDy=0;" edge="1" parent="1" source="152" target="116">
                    <mxGeometry relative="1" as="geometry"/>
                </mxCell>
                <mxCell id="152" value="&lt;span style=&quot;color: rgb(0, 0, 0);&quot;&gt;R5 Configures MAIN Domain PLLs&lt;/span&gt;" style="rounded=0;whiteSpace=wrap;html=1;fillColor=#fff2cc;strokeColor=#d6b656;" vertex="1" parent="1">
                    <mxGeometry x="627" y="416" width="120" height="60" as="geometry"/>
                </mxCell>
                <mxCell id="158" style="edgeStyle=none;html=1;exitX=0.5;exitY=1;exitDx=0;exitDy=0;entryX=0.5;entryY=0;entryDx=0;entryDy=0;" edge="1" parent="1" source="157" target="110">
                    <mxGeometry relative="1" as="geometry"/>
                </mxCell>
                <mxCell id="160" value="Yes" style="edgeLabel;html=1;align=center;verticalAlign=middle;resizable=0;points=[];" vertex="1" connectable="0" parent="158">
                    <mxGeometry x="-0.4256" y="-1" relative="1" as="geometry">
                        <mxPoint x="15" as="offset"/>
                    </mxGeometry>
                </mxCell>
                <mxCell id="162" style="edgeStyle=none;html=1;exitX=0;exitY=0.5;exitDx=0;exitDy=0;entryX=1;entryY=0.5;entryDx=0;entryDy=0;" edge="1" parent="1" source="157" target="161">
                    <mxGeometry relative="1" as="geometry"/>
                </mxCell>
                <mxCell id="163" value="No" style="edgeLabel;html=1;align=center;verticalAlign=middle;resizable=0;points=[];" vertex="1" connectable="0" parent="162">
                    <mxGeometry x="0.1102" relative="1" as="geometry">
                        <mxPoint x="43" y="-10" as="offset"/>
                    </mxGeometry>
                </mxCell>
                <mxCell id="157" value="Image&lt;br&gt;Integrity OK?" style="rhombus;whiteSpace=wrap;html=1;" vertex="1" parent="1">
                    <mxGeometry x="185" y="843" width="164" height="102" as="geometry"/>
                </mxCell>
                <mxCell id="161" value="Safety shutdown" style="rounded=1;whiteSpace=wrap;html=1;" vertex="1" parent="1">
                    <mxGeometry x="-56" y="864" width="143" height="60" as="geometry"/>
                </mxCell>
            </root>
        </mxGraphModel>
    </diagram>
</mxfile>